<svg width="301.62mm" height="61.383mm" version="1.1" viewBox="0 0 301.62 61.383" xmlns="http://www.w3.org/2000/svg">
 <g transform="translate(-39.201 -160.75)">
  <g stroke-width=".26458">
   <path d="m39.201 191.44v-30.692h301.63v61.383h-301.63z" fill="#fefbfb"/>
   <path d="m39.201 191.44v-30.692h301.63v61.383h-301.63zm105.66 8.7756c0.60655-0.2683 1.5064-0.8914 1.9997-1.3847 0.82674-0.82673 1.8558-2.6448 1.8695-3.303 5e-3 -0.25337-2.5057-0.91283-3.4757-0.91283-0.22733 0-0.58577 0.45521-0.81208 1.0313-0.51789 1.3184-1.5766 2.0186-3.004 1.9868-2.3271-0.0519-3.5547-1.855-3.5445-5.2063 0.0103-3.3862 1.207-4.9556 3.7789-4.9556 1.3836 0 2.484 0.85001 2.7368 2.1142 0.0888 0.44398 0.2488 0.86122 0.35555 0.9272 0.24215 0.14965 3.5126-0.39632 3.7429-0.62484 0.35983-0.35711-0.5983-2.6335-1.4986-3.5605-1.4025-1.4441-2.3677-1.8448-4.7556-1.9741-3.8436-0.20819-5.9447 0.90365-7.5135 3.976-0.80788 1.5821-0.89915 1.983-0.90081 3.957-2e-3 2.6356 0.3288 3.9315 1.4282 5.5913 0.92484 1.3963 2.5222 2.4564 4.2469 2.8185 1.5686 0.32934 4.0125 0.10977 5.3466-0.48038zm16.331-0.0782c1.6585-0.71349 3.2426-2.477 3.8504-4.2866 0.29294-0.87217 0.45618-2.1571 0.45034-3.545-8e-3 -1.903-0.11548-2.393-0.85404-3.8932-1.5154-3.0782-3.7242-4.2664-7.5571-4.0652-2.4464 0.1284-3.9912 0.82322-5.3164 2.3911-1.3759 1.6279-1.8092 3.002-1.8161 5.7599-5e-3 2.0709 0.10239 2.7571 0.61113 3.8965 0.65003 1.456 2.4447 3.3248 3.6684 3.8201 2.1576 0.87331 4.8219 0.84362 6.9634-0.0776zm-4.9365-2.6037c-1.7429-0.70507-2.7842-3.6876-2.2651-6.4879 0.34129-1.8412 0.90776-2.7248 2.1732-3.3899 1.7873-0.93949 3.8886-0.16509 4.76 1.7543 0.69065 1.5212 0.68721 4.6628-7e-3 6.1916-0.819 1.8042-2.8729 2.6554-4.6614 1.9319zm138.72 2.4896c1.482-0.72416 2.4096-1.6687 3.3321-3.3931 0.49918-0.93309 0.58267-1.5062 0.58267-3.9996 0-3.3224-0.43277-4.6485-2.0424-6.2581-1.4204-1.4204-2.6816-1.9138-5.1883-2.0301-2.665-0.12359-4.1174 0.34417-5.7546 1.8532-1.7622 1.6244-2.362 3.2645-2.3534 6.435 6e-3 2.1125 0.119 2.8906 0.56163 3.8601 0.6214 1.361 2.0718 2.9298 3.292 3.5608 2.0853 1.0784 5.3303 1.0662 7.5702-0.0283zm-5.4271-2.6766c-1.4091-0.69441-2.0283-2.1718-2.0321-4.8483-2e-3 -1.7771 0.10785-2.4374 0.52599-3.1473 0.82554-1.4016 1.8291-2.0149 3.263-1.9941 2.5707 0.0373 3.6182 1.5665 3.6126 5.2737-3e-3 1.7782-0.12324 2.602-0.47586 3.2528-0.94169 1.7381-3.054 2.3697-4.8935 1.4632zm-173.58 2.8179c1.3765-0.38234 2.7861-2.0289 3.0089-3.5147 0.24519-1.6351-0.50711-3.31-1.7993-4.0059l-0.95442-0.51399 0.76556-0.46556c1.1415-0.69417 1.6685-1.9083 1.5162-3.4929-0.10568-1.0998-0.28884-1.4765-1.0628-2.1858-1.3164-1.2064-2.3958-1.4216-7.1366-1.4233l-4.1672-1e-3v15.875l4.4318-2e-3c2.4375-7.9e-4 4.8665-0.12223 5.3979-0.26982zm-5.8609-4.329v-2.0142h1.9434c2.2535 0 2.8191 0.38084 2.8191 1.898 0 1.4036-0.72048 1.902-2.9298 2.0269l-1.8326 0.10355zm0-6.4739v-1.8903h1.7198c1.9168 0 2.7781 0.52409 2.7781 1.6905 0 1.2053-0.76281 1.7471-2.712 1.9262l-1.7859 0.16404zm22.225 9.619v-1.4552h-7.1438v-3.7042h6.6146v-2.9104h-6.6146v-3.4396h7.1438v-2.9104h-11.112v15.875h11.112zm38.69-4.2995 0.0713-5.7547 1.7111 5.7547 1.7111 5.7547h3.2926l0.66207-2.1828c0.36413-1.2006 1.1155-3.7865 1.6696-5.7465l1.0076-3.5637 0.0713 5.7465 0.0713 5.7465h3.4293v-15.894l-5.3772 0.1508-1.4786 5.2248c-0.81324 2.8737-1.5381 5.2234-1.6109 5.2217-0.0728-2e-3 -0.83265-2.3827-1.6886-5.291l-1.5564-5.2879h-5.2217v15.875h3.1647zm27.985 4.2995v-1.4552h-7.1438v-3.7042h6.6146v-2.9104h-6.6146v-3.4396h7.1438v-2.9104h-11.112v15.875h11.112zm11.301-0.33073 0.53184-1.7859 5.8106-0.1488 0.53399 1.7942 0.53398 1.7942 4.0333 0.1544-0.52726-1.4001c-0.28999-0.77006-1.5803-4.3171-2.8674-7.8824l-2.3402-6.4823-2.2261-0.0755-2.2261-0.0756-2.7531 7.6162c-1.5142 4.1889-2.8046 7.765-2.8675 7.9469-0.0848 0.24525 0.39565 0.33073 1.8589 0.33073h1.9733zm2.3207-7.1968c0.48763-1.448 0.92921-2.847 0.98129-3.1089 0.0521-0.26188 0.48573 0.75292 0.96367 2.2551 0.47795 1.5022 0.9342 2.9012 1.0139 3.1088 0.11761 0.30649-0.23078 0.37759-1.8503 0.37759h-1.9952zm20.245 6.2434v-2.7392l2.5455-0.15187c3.8447-0.22938 5.8657-1.5227 6.3414-4.0583 0.33305-1.7753-0.11109-3.301-1.3099-4.4998-1.4964-1.4964-2.488-1.7155-7.3665-1.6274l-4.0469 0.0731-0.0701 7.8714-0.0701 7.8714h3.9766zm0-7.9764v-2.249h1.6841c2.26 0 3.0784 0.5979 3.0784 2.249 0 1.651-0.81842 2.249-3.0784 2.249h-1.6841zm12.095 8.9297 0.53184-1.7859 5.8106-0.1488 0.53398 1.7942 0.53399 1.7942 4.0333 0.1544-0.52726-1.4001c-0.28999-0.77006-1.5803-4.3171-2.8674-7.8824l-2.3402-6.4823-2.2261-0.0755-2.2261-0.0756-2.7531 7.6162c-1.5142 4.1889-2.8046 7.765-2.8675 7.9469-0.0848 0.24525 0.39564 0.33073 1.8589 0.33073h1.9733zm2.3207-7.1968c0.48763-1.448 0.92921-2.847 0.98129-3.1089 0.0521-0.26188 0.48573 0.75292 0.96367 2.2551 0.47795 1.5022 0.9342 2.9012 1.0139 3.1088 0.11761 0.30649-0.23079 0.37759-1.8503 0.37759h-1.9952zm15.747 2.6327v-6.35h4.7625v-3.175h-13.229v3.175h4.7625v12.7h3.7042zm10.319 3.3073v-3.0427h1.995l3.0292 6.0854h4.2761l-3.427-6.4823 1.0193-0.71597c1.3048-0.91649 1.9101-2.1024 1.927-3.7751 0.0189-1.8697-0.68044-3.1732-2.1733-4.0508-1.1861-0.69725-1.3617-0.72118-5.9187-0.80615l-4.6964-0.0876v15.918h3.9688zm0-7.8052v-2.1167h1.8521c2.2559 0 2.9104 0.47169 2.9104 2.0975 0 1.5275-0.87682 2.1359-3.0784 2.1359h-1.6841zm31.486 5.4901v-5.3578l0.76959 1.4552c0.42326 0.80037 1.7767 3.1816 3.0076 5.2917l2.238 3.8365 2.1512 0.0768 2.1512 0.0769v-15.896h-3.7042v5.3476c0 5.2821-6e-3 5.3364-0.46752 4.4306-0.25712-0.50436-1.5949-2.9151-2.9727-5.3573l-2.5052-4.4403-4.2404 0.1516-0.0701 7.8714-0.0701 7.8714h3.712v-5.3578zm-225.34 0.64235c1.6444-0.7274 3.2171-2.4367 3.8958-4.2342 1.7889-4.7379-1.8132-9.9272-6.8938-9.9315-4.2176-4e-3 -7.4745 3.2142-7.4745 7.3848 0 5.4306 5.4896 8.9851 10.473 6.7809z" fill="#fe574f"/>
   <path d="m63.278 191.44v-9.7896h3.7042v19.579h-3.7042z" fill="#052c4a"/>
  </g>
 </g>
</svg>
