<svg width="301.62mm" height="61.383mm" version="1.1" viewBox="0 0 301.62 61.383" xmlns="http://www.w3.org/2000/svg">
 <path d="m0 30.69v-30.692h301.63v61.383h-301.63z" fill="#fefbfb" stroke-width=".26458"/>
 <path d="m7.9375-0.0020671c-4.3974 0-7.9375 3.5401-7.9375 7.9375v45.508c0 4.3974 3.5401 7.9375 7.9375 7.9375h285.76c4.3974 0 7.9375-3.5401 7.9375-7.9375v-45.508c0-4.3974-3.5401-7.9375-7.9375-7.9375zm29.366 20.806c5.0806 0.0043 8.6825 5.1938 6.8936 9.9317-0.67864 1.7973-2.2516 3.5069-3.8959 4.2344-4.9833 2.2038-10.473-1.3505-10.473-6.781 0-4.1706 3.2574-7.3891 7.475-7.3851zm214.21 2.7704c0.29796-0.0039 0.61203 0.0021 0.94516 0.01757 2.5067 0.1163 3.7679 0.60997 5.1883 2.0304 1.6096 1.6096 2.0422 2.9356 2.0422 6.258 0 2.4934-0.0832 3.0662-0.58239 3.9992-0.9225 1.7244-1.8501 2.6689-3.3321 3.3931-2.2399 1.0945-5.4853 1.1068-7.5706 0.02842-1.2202-0.631-2.6704-2.2-3.2918-3.561-0.44263-0.9695-0.55573-1.7472-0.56172-3.8597-9e-3 -3.1705 0.59114-4.8109 2.3533-6.4353 1.4326-1.3204 2.7238-1.8433 4.8095-1.8707zm-132.93 1e-3c3.4064-0.02397 5.4368 1.2008 6.8575 4.0866 0.73856 1.5002 0.8457 1.9903 0.8537 3.8933 6e-3 1.3879-0.15716 2.6728-0.4501 3.545-0.6078 1.8096-2.1919 3.5731-3.8504 4.2866-2.1415 0.92122-4.8058 0.95082-6.9634 0.07751-1.2237-0.4953-3.0185-2.3639-3.6685-3.8199-0.50874-1.1394-0.61582-1.8255-0.61082-3.8964 7e-3 -2.7579 0.44001-4.132 1.8159-5.7599 1.3252-1.5679 2.8701-2.2627 5.3165-2.3911 0.23956-0.01258 0.47261-0.02011 0.6997-0.0217zm-16.228 0.0041c0.22691 0.0025 0.45999 0.01024 0.70022 0.02325 2.3879 0.1293 3.3533 0.52994 4.7558 1.974 0.9003 0.927 1.8584 3.2034 1.4986 3.5605-0.2303 0.22852-3.5008 0.77442-3.7429 0.62477-0.10675-0.06598-0.26673-0.48309-0.35553-0.92707-0.2528-1.2642-1.3532-2.1141-2.7368-2.1141-2.5719 0-3.7688 1.5691-3.7791 4.9553-0.01021 3.3513 1.2174 5.1545 3.5445 5.2064 1.4274 0.0318 2.4866-0.66804 3.0045-1.9864 0.22631-0.57609 0.58451-1.0315 0.81184-1.0315 0.97 0 3.4808 0.65924 3.4758 0.91261-0.0137 0.6582-1.0429 2.4764-1.8696 3.3032-0.4933 0.4933-1.3928 1.1166-1.9994 1.3849-1.3341 0.59015-3.7778 0.80941-5.3464 0.48007-1.7247-0.3621-3.3219-1.4221-4.2468-2.8184-1.0994-1.6598-1.4303-2.9558-1.4283-5.5914 0.0016-1.974 0.09284-2.3748 0.90072-3.9569 1.4708-2.8803 3.4094-4.0374 6.813-3.9992zm127.83 0.1881 4.6964 0.08733c4.557 0.08497 4.7329 0.1089 5.919 0.80615 1.4929 0.8776 2.1919 2.1812 2.173 4.0509-0.0169 1.6727-0.62221 2.8585-1.927 3.775l-1.0191 0.71624 3.4272 6.4823h-4.2762l-3.0293-6.0854h-1.9952v6.0854h-3.9688zm-84.667 0.02377v15.894h-3.4292l-0.0713-5.7464-0.0713-5.7464-1.0077 3.5636c-0.55409 1.96-1.3055 4.5458-1.6697 5.7464l-0.66198 2.1828h-3.2923l-1.7115-5.7547-1.711-5.7547-0.0713 5.7547-0.0713 5.7542h-3.1647v-15.875h5.2214l1.5565 5.2875c0.85595 2.9083 1.616 5.2892 1.6888 5.2912 0.0728 0.0016 0.79752-2.3477 1.6108-5.2214l1.4785-5.225zm61.506 0 2.2257 0.07597 2.2262 0.07545 2.3404 6.4823c1.2871 3.5653 2.577 7.1121 2.867 7.8822l0.52762 1.4004-4.0334-0.15451-0.53433-1.7942-0.53382-1.7942-5.8105 0.14883-0.53176 1.7859-0.53175 1.7859h-1.9735c-1.4633 0-1.9436-0.08548-1.8588-0.33073 0.0629-0.1819 1.3533-3.7579 2.8675-7.9468zm59.284 0 2.5053 4.4406c1.3778 2.4422 2.7153 4.8529 2.9724 5.3573 0.46151 0.9058 0.46767 0.85136 0.46767-4.4307v-5.3475h3.7042v15.896l-2.1513-0.077-2.1508-0.07648-2.2381-3.8365c-1.2309-2.1101-2.5843-4.4913-3.0076-5.2917l-0.76947-1.4552v10.716h-3.7119l0.0703-7.8714 0.0698-7.8719zm-93.945 5.3e-4 4.4524 0.1509 2.3399 6.4823c1.2871 3.5653 2.5775 7.1121 2.8675 7.8822l0.5271 1.4004-4.0334-0.15451-1.0676-3.5884-5.811 0.14883-1.0635 3.5719h-1.973c-1.4632 0-1.9441-0.08548-1.8593-0.33073 0.0629-0.1819 1.3533-3.7579 2.8675-7.9468zm-90.345 0.0186h11.112v2.9104h-7.1438v3.4396h6.6146v2.9104h-6.6146v3.7042h7.1438v2.9104h-11.112zm66.675 0h11.112v2.9104h-7.1438v3.4396h6.6146v2.9104h-6.6146v3.7042h7.1438v2.9104h-11.112zm66.675 0h13.229v3.175h-4.7625v12.7h-3.7042v-12.7h-4.7625zm-148.43 5.3e-4 4.1672 1e-3c4.7408 0.0017 5.8206 0.21677 7.137 1.4232 0.77396 0.7093 0.95679 1.0861 1.0625 2.1859 0.1523 1.5846-0.37469 2.7986-1.5162 3.4928l-0.76533 0.4656 0.95446 0.51418c1.2922 0.6959 2.0446 2.3709 1.7994 4.006-0.2228 1.4858-1.6326 3.1322-3.0091 3.5145-0.5314 0.14759-2.9606 0.26896-5.3981 0.26975l-4.4318 0.0021zm128.6 0.04186c3.4785 0.0034 4.4014 0.33448 5.7108 1.6438 1.1988 1.1988 1.643 2.7247 1.31 4.5-0.4757 2.5356-2.497 3.8288-6.3417 4.0582l-2.5451 0.15193v5.4787h-3.977l0.1406-15.743 4.0468-0.07338c0.60981-0.01101 1.1588-0.01702 1.6557-0.01654zm-76.856 2.6567c-0.57274-0.02379-1.1623 0.10225-1.7208 0.39584-1.2654 0.6651-1.8317 1.5488-2.173 3.39-0.5191 2.8003 0.52208 5.7829 2.265 6.488 1.7885 0.7235 3.8422-0.12798 4.6612-1.9322 0.69421-1.5288 0.69789-4.6702 7e-3 -6.1914-0.59909-1.3196-1.7796-2.0979-3.0396-2.1503zm133.42 0.09715c-1.4339-0.0208-2.4378 0.59259-3.2634 1.9942-0.41814 0.7099-0.52807 1.37-0.52607 3.1471 4e-3 2.6765 0.62334 4.1539 2.0324 4.8483 1.8395 0.9065 3.9521 0.27462 4.8938-1.4635 0.35261-0.6508 0.47242-1.4743 0.47542-3.2525 6e-3 -3.7072-1.0415-5.2363-3.6122-5.2736zm-181.2 0.11421v3.7806l1.7859-0.16381c1.9492-0.1791 2.712-0.7212 2.712-1.9265 0-1.1664-0.86132-1.6903-2.7781-1.6903zm122.77 0v4.4979h1.6836c2.26 0 3.0789-0.59796 3.0789-2.249 0-1.6511-0.81888-2.249-3.0789-2.249zm40.481 0v4.2333h1.6841c2.2016 0 3.0784-0.60829 3.0784-2.1358 0-1.6258-0.65452-2.0975-2.9104-2.0975zm-59.709 0.83302c-0.0178-0.0056-0.0302 0.0071-0.0367 0.03979-0.0521 0.2619-0.4937 1.6609-0.98133 3.1089l-0.88677 2.6329h1.9952c1.6195 0 1.9681-0.07126 1.8505-0.37775-0.0797-0.2076-0.53594-1.6067-1.0139-3.1089-0.4182-1.3144-0.80264-2.2556-0.92708-2.295zm34.661 0c-0.0178-0.0056-0.0302 0.0071-0.0367 0.03979-0.0521 0.2619-0.49371 1.6609-0.98134 3.1089l-0.88677 2.6324h1.9952c1.6195 0 1.9676-0.07075 1.85-0.37724-0.0797-0.2076-0.53594-1.6067-1.0139-3.1089-0.4182-1.3144-0.80213-2.2556-0.92656-2.295zm-138.2 5.517v2.0143l5.29e-4 2.0143 1.8324-0.10387c2.2093-0.1249 2.9295-0.62315 2.9295-2.0267 0-1.5172-0.56545-1.8981-2.819-1.8981z" fill="#fe574f"/>
 <path d="m24.077 30.69v-9.7896h3.7042v19.579h-3.7042z" fill="#052c4a" stroke-width=".26458"/>
</svg>
