<svg width="512" height="512" version="1.1" viewBox="0 0 61 36" xmlns="http://www.w3.org/2000/svg">
<g>
  <path id="Shape" d="m55.3 32.76c-0.82645-0.23448-1.5469-0.74655-2.04-1.45-1.42-2.12-4.83-3.74-6.71-4.51 0.59-0.21-0.01-3.38 0.39-3.76v-0.01c0.01511-0.01771 0.03676-0.02853 0.06-0.03 4.2-0.84 8.26 2.6 10.23 3.04h0.01c0.79753 0.63628 1.4807 1.404 2.02 2.27 2.3 3.83-1.27 5.31-3.96 4.45z" fill="#37474f"/>
  <path d="m18.27 29.82c-4.47 1.22-13.08 3.1-15.27 0.18 0 0 5.32-8.04 12-10 0.92 0.94 1.43 8.43 3.27 9.82z" fill="#37474f"/>
  <path d="m57.23 26.04c-1.8226-0.37067-3.6922-0.45166-5.54-0.24-4.09-3.18-10.66-4.49-10.66-4.49s-2.45-3.05-9.75-3.66c11.4-0.81 14.98 3.66 14.98 3.66s6.91 1.38 10.97 4.73z" fill="#cfd8dc"/>
  <path d="m51.69 25.8c-0.21 0.02-0.42 0.04-0.64 0.07-0.85 0.09-1.78 0.24-2.79 0.44-0.58134 0.12078-1.1529 0.28456-1.71 0.49-5.33 1.88-13.28 8.1-19.55 7.2-0.4-0.06-0.81-0.14-1.21-0.24-2.7384-0.81349-5.2924-2.1517-7.52-3.94-1.5089-1.1452-2.9327-2.3985-4.26-3.75 3.97-1.16 8.77-7.32 13.99-8.07 1.16-0.17 2.25-0.28 3.28-0.35 7.3 0.61 9.75 3.66 9.75 3.66s6.57 1.31 10.66 4.49z" fill="#f5f5f5"/>
  <path d="m52 26.04c-0.31319-0.07464-0.63037-0.13139-0.95-0.17 0.22-0.03 0.43-0.05 0.64-0.07 0.10755 0.0744 0.21104 0.15451 0.31 0.24z" fill="#707070"/>
  <path d="m46.26 21.31s-4.26-0.31-18.26 1.69c-4.7295 0.69449-9.4043 1.7203-13.99 3.07-3.7501 1.0738-7.4276 2.3865-11.01 3.93-0.16-0.39-0.3-0.77-0.43-1.16-4.37-12.95 4.4-26.27 19.28-27.16 2.0555-0.11825 4.1178-0.010946 6.15 0.32 19 3 18.26 19.31 18.26 19.31z" fill="#cfd8dc"/>
  <path d="m43 21.31s-4.26-0.31-18.26 1.69c-4.7295 0.69449-9.4043 1.7203-13.99 3.07-3.44 1.01-5.83 3.18-7.75 3.93-4.37-12.95 3.97-27.43 18.85-28.32 0.94 0.06 1.91 0.16 2.89 0.32 19 3 18.26 19.31 18.26 19.31z" fill="#f5f5f5"/>
</g>
<g>
  <path d="m3 31c-0.40919 1.5e-4 -0.77719-0.24901-0.929-0.629-2.9791-7.1199-1.8513-15.296 2.944-21.344 5.177-6.489 13.831-9.485 23.141-8.014 19.656 3.1 19.114 20.173 19.106 20.344-0.012 0.26955-0.13242 0.52282-0.33391 0.70228s-0.46695 0.26988-0.73609 0.25072c-0.057 0-4.431-0.265-18.05 1.68-8.5013 1.2556-16.81 3.5807-24.728 6.92-0.12999 0.059224-0.27116 0.089913-0.414 0.09zm20.409-28.368c-6.884 0-12.867 2.676-16.831 7.643-4.1221 5.1956-5.2599 12.155-3.007 18.393 7.8017-3.1786 15.955-5.4137 24.287-6.658 5.7557-0.93416 11.565-1.5053 17.392-1.71-0.185-3.458-1.971-14.87-17.406-17.308-1.4667-0.23535-2.9495-0.35572-4.435-0.36z"/>
  <path d="m28.277 35.089c-0.47478 4.65e-4 -0.94898-0.03295-1.419-0.1-2.816-0.406-5.908-1.878-9.193-4.374-1.5467-1.1756-3.0071-2.4606-4.37-3.845-0.3866-0.39461-0.38011-1.0279 0.0145-1.4145s1.0279-0.38011 1.4145 0.0145c1.2937 1.3152 2.6803 2.5356 4.149 3.652 2.3827 1.9955 5.2249 3.3661 8.27 3.988 3.938 0.575 8.822-2.028 13.135-4.316 1.9133-1.0809 3.899-2.0282 5.943-2.835 0.60392-0.2224 1.2237-0.39923 1.854-0.529 3.0665-0.73353 6.2516-0.82477 9.355-0.268 0.46922 0.0918 0.80781 0.50289 0.808 0.981-0.0059 0.30235-0.14607 0.58639-0.38244 0.77503-0.23637 0.18863-0.54443 0.26229-0.84056 0.20097-2.8405-0.49821-5.7532-0.40493-8.556 0.274-0.53394 0.11103-1.0588 0.26213-1.57 0.452-1.9507 0.77563-3.8464 1.6831-5.674 2.716-4.115 2.184-8.725 4.628-12.938 4.628z"/>
  <path d="m56.826 33.989c-1.7265 0.05965-3.3718-0.73384-4.4-2.122-0.925-1.381-3.2-2.889-6.257-4.138-0.33083-0.1354-0.56429-0.43702-0.61244-0.79122-0.04815-0.35421 0.09632-0.7072 0.379-0.926 0.28268-0.2188 0.66061-0.27018 0.99144-0.13478 2.448 1 5.677 2.662 7.162 4.879 1.0607 1.2494 2.8424 1.6033 4.3 0.854 0.809-0.511 0.813-1.448 0.012-2.783-0.46212-0.74261-1.0456-1.4024-1.726-1.952-0.02871-0.01887-0.05642-0.03923-0.083-0.061-3.822-3.154-10.463-4.507-10.53-4.521-0.53453-0.11481-0.87777-0.63761-0.7706-1.1737 0.10717-0.53611 0.62502-0.88678 1.1626-0.78728 0.291 0.058 7.118 1.451 11.331 4.874 0.031 0.021 0.062 0.043 0.091 0.067 0.88886 0.70673 1.649 1.5616 2.247 2.527 1.628 2.715 0.727 4.622-0.66 5.5-0.79795 0.47012-1.7111 0.7087-2.637 0.689z"/>
  <path d="m7.967 32.539c-2.577 0-4.707-0.525-5.767-1.939-0.33137-0.44183-0.24183-1.0686 0.2-1.4s1.0686-0.24183 1.4 0.2c1.28 1.7 6.723 1.5 14.207-0.545 0.53296-0.14525 1.0827 0.16904 1.228 0.702s-0.16904 1.0827-0.702 1.228c-3.4356 1.0209-6.9849 1.6101-10.566 1.754z"/>
</g>
</svg>
