<svg width="2645.2" height="487.3" version="1.1" viewBox="0 0 2645.2 487.3" xmlns="http://www.w3.org/2000/svg">
 <g transform="translate(3.97e-6)">
  <g transform="translate(-.23168 -31.245)">
   <path d="m13.919 91.55c-1.4296 0.20517-2.1634-0.086655-4.873 1.0328l246.95 208.42-0.05403-209.4z" fill="#999"/>
   <path d="m52.612 272.5-52.38 167.01c4.4667 25.728 18.351 38.992 40.449 41.384l215.32 0.10146-165.73-180.04c-23.654-7.8428-29.964-18.285-37.655-28.456z" fill="#474747"/>
   <path d="m4.9158 95.591 47.696 176.91c8.6643 18.349 21.889 26.3 37.655 28.456l165.73 0.04226-246.95-208.42c-1.4675 0.82101-2.8634 1.7852-4.13 3.0079z" fill="#808080"/>
   <path d="m0.47183 104.44-0.24015 335.08 52.38-167.01-47.696-176.91c-2.0663 1.3403-3.5159 4.3767-4.4439 8.8473z" fill="#666"/>
   <path d="m256 301v180l-165.73-180.04z" fill="#4d4d4d"/>
   <g>
    <path d="m151.3 91.531c-3.6258-32.935 11.956-56.874 40.249-60.286-1.5356 7.0778-3.242 13.463-5.286 20.592-1.8975 6.6181-3.6956 13.226-4.8029 19.765-1.1199 6.6135-1.3731 13.518-0.46799 19.929z" fill="#686868"/>
    <path d="m181.89 69.132c2.0723-3.9447 3.305-7.391 11.997-8.2414l62.116 0.10929-64.453-29.755c-3.3683 12.823-7.4683 26.602-9.6604 37.887z" fill="#565656"/>
    <path d="m497.97 91.55c1.4296 0.20517 2.1634-0.08665 4.873 1.0328l-246.95 208.42 0.054-209.4z" fill="#bdbdbd"/>
    <path d="m459.28 272.5 52.38 167.01c-4.4666 25.728-18.351 38.992-40.449 41.384l-215.32 0.10146 165.73-180.04c23.706-5.3078 30.42-17.104 37.655-28.456z" fill="#686868"/>
    <path d="m506.98 95.591-47.696 176.91c-8.6643 18.349-21.889 26.3-37.655 28.456l-165.73 0.04226 246.95-208.42c1.4675 0.82101 2.8634 1.7852 4.13 3.0079z" fill="#9c9c9c"/>
    <path d="m511.42 104.44 0.24015 335.08-52.38-167.01 47.696-176.91c2.0663 1.3403 3.5159 4.3767 4.4439 8.8473z" fill="#818181"/>
    <path d="m255.89 301v180l165.73-180.04z" fill="#5a5a5a"/>
    <path d="m360.65 91.531c3.6258-32.935-12.009-56.874-40.302-60.286 1.5356 7.0778 3.242 13.463 5.286 20.592 1.8975 6.6181 3.6956 13.226 4.8029 19.765 1.1199 6.6135 1.5332 13.518 0.62809 19.929z" fill="#a9a9a9"/>
    <path d="m330.01 69.132c-1.7042-3.0855-3.3506-7.3519-11.997-8.2414l-62.116 0.10929 64.453-29.755c3.2241 12.632 7.2998 25.926 9.6604 37.887z" fill="#707070"/>
    <path d="m191.55 31.245h128.8l-64.345 29.755z" fill="#b0b0b0"/>
   </g>
  </g>
  <g transform="translate(-.23168 -31.245)">
   <path d="m13.919 91.55c-1.4296 0.20517-2.1634-0.086655-4.873 1.0328l246.95 208.42-0.05403-209.4z" fill="#999"/>
   <path d="m52.612 272.5-52.38 167.01c4.4667 25.728 18.351 38.992 40.449 41.384l215.32 0.10146-165.73-180.04c-23.654-7.8428-29.964-18.285-37.655-28.456z" fill="#474747"/>
   <path d="m4.9158 95.591 47.696 176.91c8.6643 18.349 21.889 26.3 37.655 28.456l165.73 0.04226-246.95-208.42c-1.4675 0.82101-2.8634 1.7852-4.13 3.0079z" fill="#808080"/>
   <path d="m0.47183 104.44-0.24015 335.08 52.38-167.01-47.696-176.91c-2.0663 1.3403-3.5159 4.3767-4.4439 8.8473z" fill="#666"/>
   <path d="m256 301v180l-165.73-180.04z" fill="#4d4d4d"/>
   <g>
    <path d="m151.3 91.531c-3.6258-32.935 11.956-56.874 40.249-60.286-1.5356 7.0778-3.242 13.463-5.286 20.592-1.8975 6.6181-3.6956 13.226-4.8029 19.765-1.1199 6.6135-1.3731 13.518-0.46799 19.929z" fill="#686868"/>
    <path d="m181.89 69.132c2.0723-3.9447 3.305-7.391 11.997-8.2414l62.116 0.10929-64.453-29.755c-3.3683 12.823-7.4683 26.602-9.6604 37.887z" fill="#565656"/>
    <path d="m497.97 91.55c1.4296 0.20517 2.1634-0.08665 4.873 1.0328l-246.95 208.42 0.054-209.4z" fill="#bdbdbd"/>
    <path d="m459.28 272.5 52.38 167.01c-4.4666 25.728-18.351 38.992-40.449 41.384l-215.32 0.10146 165.73-180.04c23.706-5.3078 30.42-17.104 37.655-28.456z" fill="#686868"/>
    <path d="m506.98 95.591-47.696 176.91c-8.6643 18.349-21.889 26.3-37.655 28.456l-165.73 0.04226 246.95-208.42c1.4675 0.82101 2.8634 1.7852 4.13 3.0079z" fill="#9c9c9c"/>
    <path d="m511.42 104.44 0.24015 335.08-52.38-167.01 47.696-176.91c2.0663 1.3403 3.5159 4.3767 4.4439 8.8473z" fill="#818181"/>
    <path d="m255.89 301v180l165.73-180.04z" fill="#5a5a5a"/>
    <path d="m360.65 91.531c3.6258-32.935-12.009-56.874-40.302-60.286 1.5356 7.0778 3.242 13.463 5.286 20.592 1.8975 6.6181 3.6956 13.226 4.8029 19.765 1.1199 6.6135 1.5332 13.518 0.62809 19.929z" fill="#a9a9a9"/>
    <path d="m330.01 69.132c-1.7042-3.0855-3.3506-7.3519-11.997-8.2414l-62.116 0.10929 64.453-29.755c3.2241 12.632 7.2998 25.926 9.6604 37.887z" fill="#707070"/>
    <path d="m191.55 31.245h128.8l-64.345 29.755z" fill="#b0b0b0"/>
   </g>
  </g>
  <g transform="translate(-.23168 -31.245)">
   <path d="m13.919 91.55c-1.4296 0.20517-2.1634-0.086655-4.873 1.0328l246.95 208.42-0.05403-209.4z" fill="#999"/>
   <path d="m52.612 272.5-52.38 167.01c4.4667 25.728 18.351 38.992 40.449 41.384l215.32 0.10146-165.73-180.04c-23.654-7.8428-29.964-18.285-37.655-28.456z" fill="#474747"/>
   <path d="m4.9158 95.591 47.696 176.91c8.6643 18.349 21.889 26.3 37.655 28.456l165.73 0.04226-246.95-208.42c-1.4675 0.82101-2.8634 1.7852-4.13 3.0079z" fill="#808080"/>
   <path d="m0.47183 104.44-0.24015 335.08 52.38-167.01-47.696-176.91c-2.0663 1.3403-3.5159 4.3767-4.4439 8.8473z" fill="#666"/>
   <path d="m256 301v180l-165.73-180.04z" fill="#4d4d4d"/>
   <g>
    <path d="m151.3 91.531c-3.6258-32.935 11.956-56.874 40.249-60.286-1.5356 7.0778-3.242 13.463-5.286 20.592-1.8975 6.6181-3.6956 13.226-4.8029 19.765-1.1199 6.6135-1.3731 13.518-0.46799 19.929z" fill="#686868"/>
    <path d="m181.89 69.132c2.0723-3.9447 3.305-7.391 11.997-8.2414l62.116 0.10929-64.453-29.755c-3.3683 12.823-7.4683 26.602-9.6604 37.887z" fill="#565656"/>
    <path d="m497.97 91.55c1.4296 0.20517 2.1634-0.08665 4.873 1.0328l-246.95 208.42 0.054-209.4z" fill="#bdbdbd"/>
    <path d="m459.28 272.5 52.38 167.01c-4.4666 25.728-18.351 38.992-40.449 41.384l-215.32 0.10146 165.73-180.04c23.706-5.3078 30.42-17.104 37.655-28.456z" fill="#686868"/>
    <path d="m506.98 95.591-47.696 176.91c-8.6643 18.349-21.889 26.3-37.655 28.456l-165.73 0.04226 246.95-208.42c1.4675 0.82101 2.8634 1.7852 4.13 3.0079z" fill="#9c9c9c"/>
    <path d="m511.42 104.44 0.24015 335.08-52.38-167.01 47.696-176.91c2.0663 1.3403 3.5159 4.3767 4.4439 8.8473z" fill="#818181"/>
    <path d="m255.89 301v180l165.73-180.04z" fill="#5a5a5a"/>
    <path d="m360.65 91.531c3.6258-32.935-12.009-56.874-40.302-60.286 1.5356 7.0778 3.242 13.463 5.286 20.592 1.8975 6.6181 3.6956 13.226 4.8029 19.765 1.1199 6.6135 1.5332 13.518 0.62809 19.929z" fill="#a9a9a9"/>
    <path d="m330.01 69.132c-1.7042-3.0855-3.3506-7.3519-11.997-8.2414l-62.116 0.10929 64.453-29.755c3.2241 12.632 7.2998 25.926 9.6604 37.887z" fill="#707070"/>
    <path d="m191.55 31.245h128.8l-64.345 29.755z" fill="#b0b0b0"/>
   </g>
  </g>
 </g>
 <g transform="translate(390.04 46.456)">
  <path d="m-134.38 178.58-62.081-0.0755c-8.3026 1.6348-10.934 7.0506-12.679 13.057v31.698z" fill="#fc0"/>
  <path d="m-209.14 223.26-0.15095 32.528c2.3058 4.9866 2.9668 10.729 13.736 12.638l61.283 0.1545z" fill="#f7c500"/>
  <path d="m-209.14 223.26c24.813 15.02 49.948 30.301 74.761 45.32 22.392-12.41 53.886-32.668 74.87-45.32-24.939-14.882-49.93-29.799-74.87-44.68-25.924 15.471-52.499 31.395-74.761 44.68z" fill="#ffd429"/>
  <path d="m-134.38 178.58 62.189-0.0755c8.3026 1.6348 10.934 7.0506 12.679 13.057v31.698z" fill="#ffdc50"/>
  <path d="m-59.51 223.26 0.15095 32.713c-2.3058 4.9866-3.0422 10.544-13.811 12.453l-61.208 0.1545z" fill="#fcc900"/>
  <path d="m-134.38 178.58-62.081-0.0755c-8.3026 1.6348-10.934 7.0506-12.679 13.057v31.698z" fill="#fc0"/>
  <path d="m-209.14 223.26-0.15095 32.528c2.3058 4.9866 2.9668 10.729 13.736 12.638l61.283 0.1545z" fill="#f7c500"/>
  <path d="m-209.14 223.26c24.813 15.02 49.948 30.301 74.761 45.32 22.392-12.41 53.886-32.668 74.87-45.32-24.939-14.882-49.93-29.799-74.87-44.68-25.924 15.471-52.499 31.395-74.761 44.68z" fill="#ffd429"/>
  <path d="m-134.38 178.58 62.189-0.0755c8.3026 1.6348 10.934 7.0506 12.679 13.057v31.698z" fill="#ffdc50"/>
  <path d="m-59.51 223.26 0.15095 32.713c-2.3058 4.9866-3.0422 10.544-13.811 12.453l-61.208 0.1545z" fill="#fcc900"/>
  <path d="m-134.38 178.58-62.081-0.0755c-8.3026 1.6348-10.934 7.0506-12.679 13.057v31.698z" fill="#fc0"/>
  <path d="m-209.14 223.26-0.15095 32.528c2.3058 4.9866 2.9668 10.729 13.736 12.638l61.283 0.1545z" fill="#f7c500"/>
  <path d="m-209.14 223.26c24.813 15.02 49.948 30.301 74.761 45.32 22.392-12.41 53.886-32.668 74.87-45.32-24.939-14.882-49.93-29.799-74.87-44.68-25.924 15.471-52.499 31.395-74.761 44.68z" fill="#ffd429"/>
  <path d="m-134.38 178.58 62.189-0.0755c8.3026 1.6348 10.934 7.0506 12.679 13.057v31.698z" fill="#ffdc50"/>
  <path d="m-59.51 223.26 0.15095 32.713c-2.3058 4.9866-3.0422 10.544-13.811 12.453l-61.208 0.1545z" fill="#fcc900"/>
 </g>
 <g fill="#474747" stroke-width="8.5027" aria-label="Crystal">
  <path d="m737.32 341.06c-64.281 0-92.51-44.894-92.51-82.646 0-37.412 28.229-82.306 92.51-82.306 32.65 0 55.098 17.346 55.098 17.346l27.209-54.417s-31.29-25.848-92.169-25.848c-79.585 0-152.03 65.301-152.03 145.91 0 80.266 72.783 144.89 152.03 144.89 60.879 0 92.169-25.848 92.169-25.848l-27.209-54.417s-22.447 17.346-55.098 17.346z" fill="#474747" stroke-width="8.5027"/>
  <path d="m844.42 398.88h60.199v-91.829c0-4.4214 4.4214-35.371 35.711-35.371 20.066 0 31.29 9.523 31.29 9.523l25.168-51.016s-15.645-10.883-38.092-10.883c-34.351 0-53.397 30.27-53.397 30.27h-0.68021v-25.168h-60.199z"/>
  <g fill="#474747" stroke-width="8.5027">
   <path d="m1161.2 224.4-41.493 89.449-48.636-89.449h-69.382l82.646 147.27-60.199 115.64h69.382l137.06-262.9z"/>
   <path d="m1310.6 219.3c-45.915 0-76.184 20.407-76.184 56.118 0 26.188 17.686 38.432 35.371 47.615 19.726 10.203 38.772 11.224 38.772 23.808 0 11.564-10.203 12.584-18.706 12.584-19.386 0-43.194-20.066-43.194-20.066l-24.488 41.153s25.168 23.467 67.342 23.467c35.711 0 82.646-8.1626 82.646-59.519 0-35.711-29.93-48.636-53.057-55.778-14.965-4.7615-27.209-7.4824-27.209-16.665 0-8.1626 5.4417-10.543 18.706-10.543 18.366 0 38.772 10.883 38.772 10.883l19.726-39.453s-24.828-13.604-58.499-13.604z"/>
   <path d="m1409.1 224.4h-25.168v45.915h25.168v67.001c0 30.95 11.564 66.661 59.519 66.661 24.828 0 44.214-10.883 44.214-10.883l-14.965-48.636s-7.1423 5.4417-14.965 5.4417c-9.5231 0-13.604-7.8225-13.604-24.148v-55.438h36.732v-45.915h-36.732v-64.961h-60.199z"/>
   <path d="m1519.8 311.81c0 51.016 35.711 92.169 86.728 92.169 23.808 0 44.214-10.543 57.138-24.828h0.6803v19.726h59.519v-174.48h-60.199v16.665c-14.284-13.944-33.671-21.767-57.138-21.767-51.016 0-86.728 41.493-86.728 92.51zm63.94 0c0-24.148 18.026-41.153 40.813-41.153 22.447 0 40.473 17.005 40.473 41.153 0 23.808-17.006 40.813-40.473 40.813-24.488 0-40.813-17.005-40.813-40.813z"/>
   <path d="m1764.9 398.88h60.199v-292.49h-60.199z"/>
  </g>
 </g>
 <g fill="#f7c500" stroke-width="8.5027" aria-label="Jobs">
  <path d="m2015.4 118.29h-63.94v185.02c0 28.229-13.944 39.453-32.31 39.453-16.325 0-36.392-19.046-36.392-19.046l-20.407 53.397s25.508 26.869 65.641 26.869c56.118 0 87.408-29.249 87.408-84.347z"/>
  <path d="m2040.1 311.81c0 53.737 42.174 92.169 105.09 92.169 60.199 0 104.07-38.432 104.07-92.169 0-54.417-46.255-92.51-104.07-92.51-58.839 0-105.09 38.092-105.09 92.51zm63.94 0c0-24.148 18.026-41.153 40.813-41.153 22.447 0 40.473 17.005 40.473 41.153 0 23.808-17.005 40.813-40.473 40.813-24.488 0-40.813-17.005-40.813-40.813z"/>
  <path d="m2481.3 311.81c0-51.016-35.711-92.51-86.728-92.51-23.468 0-42.854 7.8225-57.138 21.767v-134.68h-60.199v292.49h59.519v-19.726h0.6802c12.924 14.285 33.331 24.828 57.138 24.828 51.016 0 86.728-41.153 86.728-92.169zm-63.94 0c0 23.808-16.325 40.813-40.813 40.813-23.468 0-40.473-17.005-40.473-40.813 0-24.148 18.026-41.153 40.473-41.153 22.787 0 40.813 17.005 40.813 41.153z"/>
  <path d="m2583.6 219.3c-45.915 0-76.184 20.407-76.184 56.118 0 26.188 17.686 38.432 35.371 47.615 19.726 10.203 38.772 11.224 38.772 23.808 0 11.564-10.203 12.584-18.706 12.584-19.386 0-43.194-20.066-43.194-20.066l-24.488 41.153s25.168 23.467 67.342 23.467c35.711 0 82.646-8.1626 82.646-59.519 0-35.711-29.93-48.636-53.057-55.778-14.965-4.7615-27.209-7.4824-27.209-16.665 0-8.1626 5.4417-10.543 18.706-10.543 18.366 0 38.772 10.883 38.772 10.883l19.726-39.453s-24.828-13.604-58.499-13.604z"/>
 </g>
</svg>
