<svg width="205.67mm" height="63.57mm" version="1.1" viewBox="0 0 205.67 63.57" xmlns="http://www.w3.org/2000/svg">
 <g transform="translate(-1.3888 -1.3995)">
  <path d="m39.255 22.662-16.61 4.4504 4.4468 16.596 16.61-4.4504z" clip-rule="evenodd" fill="#7b7b7b" fill-rule="evenodd" stroke-width=".26421"/>
  <path d="m2.3584 30.836c-0.55228 0.55245-0.86808 1.2567-0.94933 1.9739l37.846-10.148-5.6901-21.237c-0.97057-0.11838-1.9821 0.19285-2.7318 0.93837l-28.474 28.473z" fill="#191919"/>
  <path d="m33.565 1.424 10.137 37.834 21.238-5.6901c0.10942-0.96496-0.20507-1.9678-0.94823-2.711l-28.488-28.488c-0.54529-0.54529-1.231-0.85829-1.9385-0.94458z" fill="#b3b3b3"/>
  <path d="m27.091 43.708 5.6901 21.237c0.9688 0.11942 1.9788-0.18951 2.7289-0.93106l28.481-28.48 0.0011-0.0011c0.5518-0.55218 0.86586-1.2484 0.94714-1.9652z" fill="#191919"/>
  <path d="m1.409 32.81c-0.10662 0.96236 0.20869 1.9619 0.94969 2.7029l28.488 28.488c0.54429 0.54429 1.2284 0.85652 1.9345 0.94348l-10.137-37.833c-3.348 0.87437-16.027 4.278-21.235 5.6982z" fill="#0a0a0a"/>
 </g>
 <g transform="translate(-1.3888 -1.3995)">
  <path d="m39.255 22.662-16.61 4.4504 4.4468 16.596 16.61-4.4504z" clip-rule="evenodd" fill="#7b7b7b" fill-rule="evenodd" stroke-width=".26421"/>
  <path d="m2.3584 30.836c-0.55228 0.55245-0.86808 1.2567-0.94933 1.9739l37.846-10.148-5.6901-21.237c-0.97057-0.11838-1.9821 0.19285-2.7318 0.93837l-28.474 28.473z" fill="#191919"/>
  <path d="m33.565 1.424 10.137 37.834 21.238-5.6901c0.10942-0.96496-0.20507-1.9678-0.94823-2.711l-28.488-28.488c-0.54529-0.54529-1.231-0.85829-1.9385-0.94458z" fill="#b3b3b3"/>
  <path d="m27.091 43.708 5.6901 21.237c0.9688 0.11942 1.9788-0.18951 2.7289-0.93106l28.481-28.48 0.0011-0.0011c0.5518-0.55218 0.86586-1.2484 0.94714-1.9652z" fill="#191919"/>
  <path d="m1.409 32.81c-0.10662 0.96236 0.20869 1.9619 0.94969 2.7029l28.488 28.488c0.54429 0.54429 1.2284 0.85652 1.9345 0.94348l-10.137-37.833c-3.348 0.87437-16.027 4.278-21.235 5.6982z" fill="#0a0a0a"/>
 </g>
 <g transform="translate(-1.3888 -1.3995)">
  <path d="m39.255 22.662-16.61 4.4504 4.4468 16.596 16.61-4.4504z" clip-rule="evenodd" fill="#7b7b7b" fill-rule="evenodd" stroke-width=".26421"/>
  <path d="m2.3584 30.836c-0.55228 0.55245-0.86808 1.2567-0.94933 1.9739l37.846-10.148-5.6901-21.237c-0.97057-0.11838-1.9821 0.19285-2.7318 0.93837l-28.474 28.473z" fill="#191919"/>
  <path d="m33.565 1.424 10.137 37.834 21.238-5.6901c0.10942-0.96496-0.20507-1.9678-0.94823-2.711l-28.488-28.488c-0.54529-0.54529-1.231-0.85829-1.9385-0.94458z" fill="#b3b3b3"/>
  <path d="m27.091 43.708 5.6901 21.237c0.9688 0.11942 1.9788-0.18951 2.7289-0.93106l28.481-28.48 0.0011-0.0011c0.5518-0.55218 0.86586-1.2484 0.94714-1.9652z" fill="#191919"/>
  <path d="m1.409 32.81c-0.10662 0.96236 0.20869 1.9619 0.94969 2.7029l28.488 28.488c0.54429 0.54429 1.2284 0.85652 1.9345 0.94348l-10.137-37.833c-3.348 0.87437-16.027 4.278-21.235 5.6982z" fill="#0a0a0a"/>
 </g>
 <g fill="#191919">
  <path d="m102.97 29.633q0.0566 0.84942 0.0566 2.2085 0 1.3025-0.0566 2.1519-0.11326 2.7182-1.2458 5.0965-1.1326 2.3784-3.1146 4.1905-1.982 1.7555-4.8134 2.7748-2.7748 1.0193-6.2291 1.0193t-6.2857-1.0193q-2.7748-1.0193-4.7568-2.7748-1.982-1.8121-3.1146-4.1905t-1.2458-5.0965q-0.05663-0.84942-0.05663-2.1519 0-1.3591 0.05663-2.2085 0.05663-2.7182 1.1892-5.0965 1.1326-2.3784 3.1146-4.1339 2.0386-1.8121 4.8134-2.8314 2.8314-1.0759 6.2857-1.0759t6.2291 1.0759q2.8314 1.0193 4.8134 2.8314 2.0386 1.7555 3.1146 4.1339 1.1326 2.3784 1.2458 5.0965zm-20.613 4.0772q0.16988 2.1519 1.529 3.3977 1.4157 1.1892 3.6808 1.1892 2.2651 0 3.6242-1.1892 1.4157-1.2458 1.5856-3.3977 0.11326-0.84942 0.11326-1.9254t-0.11326-1.9254q-0.16988-2.1519-1.5856-3.3411-1.3591-1.2458-3.6242-1.2458-2.2651 0-3.6808 1.2458-1.3591 1.1892-1.529 3.3411-0.11326 0.84942-0.11326 1.9254t0.11326 1.9254z"/>
  <path d="m136.8 44.98q0 0.62291-0.45303 1.0759-0.45303 0.45303-1.0759 0.45303h-7.1352q-0.62291 0-1.0759-0.45303-0.45303-0.45303-0.45303-1.0759v-14.327q0-2.435-1.1892-3.9074-1.1892-1.4723-3.7375-1.4723-2.5483 0-3.7375 1.4723-1.1326 1.4723-1.1326 3.9074v14.327q0 0.62291-0.45303 1.0759-0.45302 0.45303-1.0759 0.45303h-7.1352q-0.62291 0-1.0759-0.45303-0.45303-0.45303-0.45303-1.0759v-26.389q0-0.62291 0.45303-1.0759 0.45303-0.45303 1.0759-0.45303h6.852q0.62292 0 1.0759 0.45303 0.45303 0.45303 0.45303 1.0759v1.3025q0.45303-0.56628 1.1326-1.1892 0.67954-0.62291 1.6422-1.0759 0.96268-0.50966 2.2085-0.7928 1.3024-0.33977 3.0013-0.33977 2.7182 0 4.9833 0.7928 2.2651 0.73617 3.8507 2.3218 1.6422 1.5856 2.5483 4.0206 0.90606 2.435 0.90606 5.7761z"/>
  <path d="m154.98 55.909q-0.16989 0.45303-0.56628 0.90605-0.3964 0.45303-1.0759 0.45303h-7.4183q-0.56629 0-0.96268-0.3964-0.3964-0.3964-0.3964-0.96268 0-0.22651 0.0566-0.3964l4.3038-10.136-11.439-26.559q-0.0566-0.16988-0.0566-0.3964 0-0.56628 0.3964-0.96268 0.3964-0.3964 0.96268-0.3964h7.4183q0.67954 0 1.0759 0.45303 0.3964 0.45303 0.56628 0.90605l6.2857 14.723 6.2291-14.723q0.16988-0.45303 0.56628-0.90605 0.3964-0.45303 1.0759-0.45303h7.4749q0.56628 0 0.96268 0.3964 0.3964 0.3964 0.3964 0.96268 0 0.22651-0.0566 0.3964z"/>
  <path d="m195.53 31.785 9.91 12.628q0.22652 0.33977 0.22652 0.7928 0 0.50966-0.3964 0.90605t-0.96268 0.3964h-8.6641q-0.73617 0-1.1892-0.3964-0.3964-0.3964-0.62291-0.67954l-4.7002-5.946-4.6435 5.946q-0.22651 0.28314-0.67954 0.67954-0.3964 0.3964-1.1326 0.3964h-8.6641q-0.56628 0-0.96268-0.3964t-0.3964-0.90605q0-0.45303 0.22651-0.7928l10.023-12.855-9.7401-12.402q-0.22652-0.33977-0.22652-0.7928 0-0.50966 0.3964-0.90605 0.3964-0.3964 0.96268-0.3964h8.7774q0.73617 0 1.1326 0.3964 0.45302 0.3964 0.67954 0.67954l4.3604 5.6062 4.3604-5.6062q0.22651-0.28314 0.62291-0.67954 0.45303-0.3964 1.1892-0.3964h8.7774q0.56629 0 0.96268 0.3964 0.3964 0.3964 0.3964 0.90605 0 0.45303-0.22651 0.7928z"/>
 </g>
</svg>
