<?xml version="1.0" encoding="UTF-8" standalone="no"?>
<!-- Created with Inkscape (http://www.inkscape.org/) -->

<svg
   xmlns:dc="http://purl.org/dc/elements/1.1/"
   xmlns:cc="http://creativecommons.org/ns#"
   xmlns:rdf="http://www.w3.org/1999/02/22-rdf-syntax-ns#"
   xmlns:svg="http://www.w3.org/2000/svg"
   xmlns="http://www.w3.org/2000/svg"
   xmlns:sodipodi="http://sodipodi.sourceforge.net/DTD/sodipodi-0.dtd"
   xmlns:inkscape="http://www.inkscape.org/namespaces/inkscape"
   width="431.42856"
   height="431.42856"
   id="svg2"
   version="1.1"
   inkscape:version="0.48.4 r9939"
   sodipodi:docname="New document 1">
  <defs
     id="defs4" />
  <sodipodi:namedview
     id="base"
     pagecolor="#ffffff"
     bordercolor="#666666"
     borderopacity="1.0"
     inkscape:pageopacity="0.0"
     inkscape:pageshadow="2"
     inkscape:zoom="0.7"
     inkscape:cx="222.88875"
     inkscape:cy="315.46793"
     inkscape:document-units="px"
     inkscape:current-layer="layer1"
     showgrid="false"
     fit-margin-top="0"
     fit-margin-left="0"
     fit-margin-right="0"
     fit-margin-bottom="0"
     inkscape:window-width="1301"
     inkscape:window-height="744"
     inkscape:window-x="65"
     inkscape:window-y="24"
     inkscape:window-maximized="1" />
  <metadata
     id="metadata7">
    <rdf:RDF>
      <cc:Work
         rdf:about="">
        <dc:format>image/svg+xml</dc:format>
        <dc:type
           rdf:resource="http://purl.org/dc/dcmitype/StillImage" />
        <dc:title></dc:title>
      </cc:Work>
    </rdf:RDF>
  </metadata>
  <g
     inkscape:label="Layer 1"
     inkscape:groupmode="layer"
     id="layer1"
     transform="translate(-156.33296,-310.4668)">
    <path
       style="fill:#ffffff;fill-opacity:1;stroke-width:0.40000001000000002;stroke-miterlimit:4"
       d="M 0 0 L 0 431.4375 L 431.4375 431.4375 L 431.4375 0 L 0 0 z M 218.3125 65.3125 C 238.31876 65.31275 257.05415 68.30255 274.53125 74.28125 C 292.0079 80.26041 307.18453 89.00226 320.0625 100.5 C 332.93992 111.76819 343.04727 125.69313 350.40625 142.25 C 357.99459 158.80721 361.78094 177.6564 361.78125 198.8125 C 361.78094 215.1397 359.96029 229.51979 356.28125 241.9375 C 352.83156 254.35535 347.87605 264.80406 341.4375 273.3125 C 334.99835 281.82102 327.42567 288.2558 318.6875 292.625 C 309.9488 296.99423 300.29662 299.18751 289.71875 299.1875 C 282.81975 299.18751 276.4675 298.27719 270.71875 296.4375 C 264.96955 294.36789 260.15909 291.26428 256.25 287.125 C 251.1907 290.80436 245.21108 293.56659 238.3125 295.40625 C 231.6435 297.24593 224.63976 298.15626 217.28125 298.15625 C 206.01309 298.15626 195.64692 296.41815 186.21875 292.96875 C 177.02025 289.51938 168.96115 284.36756 162.0625 277.46875 C 155.39358 270.57002 150.24174 262.05575 146.5625 251.9375 C 142.88306 241.58941 141.03116 229.63017 141.03125 216.0625 C 141.03116 204.79461 142.88306 194.20086 146.5625 184.3125 C 150.24174 174.19443 155.50737 165.48384 162.40625 158.125 C 169.53486 150.76647 178.16292 145.01443 188.28125 140.875 C 198.62926 136.50595 210.36091 134.31267 223.46875 134.3125 C 236.11631 134.31267 247.50659 135.33679 257.625 137.40625 C 267.74298 139.47605 275.80209 141.66933 281.78125 143.96875 L 281.78125 250.90625 C 281.78102 257.34515 282.91892 261.81425 285.21875 264.34375 C 287.74806 266.64339 291.07925 267.81254 295.21875 267.8125 C 305.10674 267.81254 312.82447 261.71913 318.34375 249.53125 C 324.09246 237.11353 326.96847 219.40226 326.96875 196.40625 C 326.96847 182.14892 324.43383 168.90673 319.375 156.71875 C 314.54559 144.30113 307.39682 133.62484 297.96875 124.65625 C 288.54019 115.68804 277.06736 108.65306 263.5 103.59375 C 250.16217 98.30491 235.09933 95.68772 218.3125 95.6875 C 201.75529 95.68772 186.46487 98.44995 172.4375 103.96875 C 158.63984 109.48797 146.6806 117.40204 136.5625 127.75 C 126.67417 138.09834 118.84266 150.74032 113.09375 165.6875 C 107.57468 180.63497 104.81244 197.54971 104.8125 216.40625 C 104.81244 236.18281 107.68847 253.55271 113.4375 268.5 C 119.18641 283.21741 127.24551 295.51802 137.59375 305.40625 C 148.17177 315.29449 160.69996 322.75339 175.1875 327.8125 C 189.90474 332.87158 206.21928 335.40623 224.15625 335.40625 C 236.57386 335.40623 247.50897 334.60969 256.9375 333 C 266.59556 331.62023 273.82688 330.33727 278.65625 329.1875 L 282.8125 358.1875 C 280.28272 358.87733 276.95153 359.67386 272.8125 360.59375 C 268.90297 361.51353 264.28884 362.31007 259 363 C 253.94069 363.91978 248.41624 364.60253 242.4375 365.0625 C 236.45838 365.75232 230.36497 366.09369 224.15625 366.09375 C 202.7699 366.09369 182.66902 363.21768 163.8125 357.46875 C 145.18572 351.71973 128.83992 342.78155 114.8125 330.59375 C 101.0149 318.40591 89.99724 302.85666 81.71875 284 C 73.67016 265.1434 69.62498 242.62166 69.625 216.40625 C 69.62498 191.34082 73.78395 169.38804 82.0625 150.53125 C 90.34099 131.44482 101.35865 115.66798 115.15625 103.25 C 128.95371 90.60246 144.6993 81.17788 162.40625 74.96875 C 180.34293 68.53014 198.99579 65.31275 218.3125 65.3125 z M 225.53125 166.03125 C 217.71247 166.03139 210.93632 167.31435 205.1875 169.84375 C 199.66833 172.37344 195.08545 175.93221 191.40625 180.53125 C 187.72676 184.9006 184.96453 190.19748 183.125 196.40625 C 181.51515 202.3853 180.68737 208.93387 180.6875 216.0625 C 180.68737 230.55 183.82222 242.50925 190.03125 251.9375 C 196.24 261.36588 205.89217 266.06254 219 266.0625 C 223.13909 266.06254 227.3806 265.83496 231.75 265.375 C 236.349 264.68517 240.84934 263.43348 245.21875 261.59375 C 244.75864 259.06426 244.27222 256.18823 243.8125 252.96875 C 243.58234 249.74938 243.46855 246.64579 243.46875 243.65625 L 243.46875 167.78125 C 238.86938 166.6316 232.88975 166.03139 225.53125 166.03125 z "
       id="rect2987"
       transform="translate(156.33296,310.4668)" />
  </g>
</svg>
