<?xml version="1.0" encoding="iso-8859-1"?>
<!-- Generator: Adobe Illustrator 18.0.0, SVG Export Plug-In . SVG Version: 6.00 Build 0)  -->
<!DOCTYPE svg PUBLIC "-//W3C//DTD SVG 1.1//EN" "http://www.w3.org/Graphics/SVG/1.1/DTD/svg11.dtd">
<svg xmlns="http://www.w3.org/2000/svg" xmlns:xlink="http://www.w3.org/1999/xlink" version="1.1" id="Capa_1" x="0px" y="0px" viewBox="0 0 455.731 455.731" style="enable-background:new 0 0 455.731 455.731;" xml:space="preserve" width="512px" height="512px">
<g>
	<path d="M314.563,227.866c0,47.881-38.816,86.697-86.697,86.697s-86.697-38.816-86.697-86.697c0-6.872,0.794-13.555,2.31-19.965   h-24.231v114.186c0,6.304,5.119,11.41,11.422,11.41h194.39c6.303,0,11.422-5.107,11.422-11.41V207.9h-24.231   C313.769,214.311,314.563,220.993,314.563,227.866z" fill="#FFFFFF"/>
	<path d="M325.262,122.589h-30.096c-6.304,0-11.41,5.107-11.41,11.41v30.096c0,6.304,5.107,11.422,11.41,11.422h30.096   c6.303,0,11.41-5.119,11.41-11.422V134C336.673,127.696,331.566,122.589,325.262,122.589z" fill="#FFFFFF"/>
	<path d="M227.866,281.386c29.551,0,53.521-23.97,53.521-53.521s-23.97-53.521-53.521-53.521c-29.551,0-53.521,23.97-53.521,53.521   S198.315,281.386,227.866,281.386z" fill="#FFFFFF"/>
	<path d="M0,0v455.731h455.731V0H0z M368.866,338.497c0,14.906-12.086,26.991-26.991,26.991H113.857   c-14.906,0-26.991-12.086-26.991-26.991V117.234c0-14.906,12.086-26.991,26.991-26.991h228.017   c14.906,0,26.991,12.086,26.991,26.991V338.497z" fill="#FFFFFF"/>
</g>
<g>
</g>
<g>
</g>
<g>
</g>
<g>
</g>
<g>
</g>
<g>
</g>
<g>
</g>
<g>
</g>
<g>
</g>
<g>
</g>
<g>
</g>
<g>
</g>
<g>
</g>
<g>
</g>
<g>
</g>
</svg>
